<mxfile host="app.diagrams.net" modified="2023-02-22T08:55:44.620Z" agent="5.0 (Windows NT 10.0; Win64; x64) AppleWebKit/537.36 (KHTML, like Gecko) Chrome/83.0.4103.97 Safari/537.36" etag="r6dPsrNCsZecrbsXcG2O" version="20.8.20" type="github">
  <diagram name="第 1 页" id="Ozg_2JBXrxSpU3klc2gS">
    <mxGraphModel dx="1200" dy="673" grid="1" gridSize="10" guides="1" tooltips="1" connect="1" arrows="1" fold="1" page="1" pageScale="1" pageWidth="827" pageHeight="1169" math="0" shadow="0">
      <root>
        <mxCell id="0" />
        <mxCell id="1" parent="0" />
        <mxCell id="gsG_nLjZA2B4zsjH67Nx-1" value="0" style="ellipse;whiteSpace=wrap;html=1;aspect=fixed;" vertex="1" parent="1">
          <mxGeometry x="230" y="100" width="80" height="80" as="geometry" />
        </mxCell>
        <mxCell id="gsG_nLjZA2B4zsjH67Nx-2" value="1" style="ellipse;whiteSpace=wrap;html=1;aspect=fixed;" vertex="1" parent="1">
          <mxGeometry x="80" y="280" width="80" height="80" as="geometry" />
        </mxCell>
        <mxCell id="gsG_nLjZA2B4zsjH67Nx-3" value="2" style="ellipse;whiteSpace=wrap;html=1;aspect=fixed;" vertex="1" parent="1">
          <mxGeometry x="460" y="180" width="80" height="80" as="geometry" />
        </mxCell>
        <mxCell id="gsG_nLjZA2B4zsjH67Nx-4" value="3" style="ellipse;whiteSpace=wrap;html=1;aspect=fixed;" vertex="1" parent="1">
          <mxGeometry x="330" y="320" width="80" height="80" as="geometry" />
        </mxCell>
        <mxCell id="gsG_nLjZA2B4zsjH67Nx-6" value="" style="endArrow=none;html=1;rounded=0;exitX=0.614;exitY=-0.005;exitDx=0;exitDy=0;exitPerimeter=0;" edge="1" parent="1" source="gsG_nLjZA2B4zsjH67Nx-2" target="gsG_nLjZA2B4zsjH67Nx-1">
          <mxGeometry width="50" height="50" relative="1" as="geometry">
            <mxPoint x="70" y="220" as="sourcePoint" />
            <mxPoint x="120" y="170" as="targetPoint" />
          </mxGeometry>
        </mxCell>
        <mxCell id="gsG_nLjZA2B4zsjH67Nx-7" value="" style="endArrow=none;html=1;rounded=0;entryX=1.017;entryY=0.606;entryDx=0;entryDy=0;entryPerimeter=0;" edge="1" parent="1" source="gsG_nLjZA2B4zsjH67Nx-4" target="gsG_nLjZA2B4zsjH67Nx-2">
          <mxGeometry width="50" height="50" relative="1" as="geometry">
            <mxPoint x="390" y="370" as="sourcePoint" />
            <mxPoint x="440" y="320" as="targetPoint" />
          </mxGeometry>
        </mxCell>
        <mxCell id="gsG_nLjZA2B4zsjH67Nx-8" value="" style="endArrow=none;html=1;rounded=0;entryX=1.017;entryY=0.731;entryDx=0;entryDy=0;entryPerimeter=0;" edge="1" parent="1" source="gsG_nLjZA2B4zsjH67Nx-3" target="gsG_nLjZA2B4zsjH67Nx-1">
          <mxGeometry width="50" height="50" relative="1" as="geometry">
            <mxPoint x="364" y="245" as="sourcePoint" />
            <mxPoint x="414" y="195" as="targetPoint" />
          </mxGeometry>
        </mxCell>
        <mxCell id="gsG_nLjZA2B4zsjH67Nx-9" value="" style="endArrow=none;html=1;rounded=0;exitX=0.947;exitY=0.3;exitDx=0;exitDy=0;exitPerimeter=0;" edge="1" parent="1" source="gsG_nLjZA2B4zsjH67Nx-4" target="gsG_nLjZA2B4zsjH67Nx-3">
          <mxGeometry width="50" height="50" relative="1" as="geometry">
            <mxPoint x="500" y="390" as="sourcePoint" />
            <mxPoint x="550" y="340" as="targetPoint" />
          </mxGeometry>
        </mxCell>
        <mxCell id="gsG_nLjZA2B4zsjH67Nx-10" value="5" style="ellipse;whiteSpace=wrap;html=1;aspect=fixed;" vertex="1" parent="1">
          <mxGeometry x="334" y="505" width="80" height="80" as="geometry" />
        </mxCell>
        <mxCell id="gsG_nLjZA2B4zsjH67Nx-11" value="4" style="ellipse;whiteSpace=wrap;html=1;aspect=fixed;" vertex="1" parent="1">
          <mxGeometry x="160" y="640" width="80" height="80" as="geometry" />
        </mxCell>
        <mxCell id="gsG_nLjZA2B4zsjH67Nx-12" value="6" style="ellipse;whiteSpace=wrap;html=1;aspect=fixed;" vertex="1" parent="1">
          <mxGeometry x="530" y="630" width="80" height="80" as="geometry" />
        </mxCell>
        <mxCell id="gsG_nLjZA2B4zsjH67Nx-13" value="" style="endArrow=none;html=1;rounded=0;exitX=0.5;exitY=0;exitDx=0;exitDy=0;" edge="1" parent="1" source="gsG_nLjZA2B4zsjH67Nx-10" target="gsG_nLjZA2B4zsjH67Nx-4">
          <mxGeometry width="50" height="50" relative="1" as="geometry">
            <mxPoint x="600" y="490" as="sourcePoint" />
            <mxPoint x="650" y="440" as="targetPoint" />
          </mxGeometry>
        </mxCell>
        <mxCell id="gsG_nLjZA2B4zsjH67Nx-14" value="" style="endArrow=none;html=1;rounded=0;entryX=0;entryY=1;entryDx=0;entryDy=0;exitX=0.961;exitY=0.731;exitDx=0;exitDy=0;exitPerimeter=0;" edge="1" parent="1" source="gsG_nLjZA2B4zsjH67Nx-11" target="gsG_nLjZA2B4zsjH67Nx-12">
          <mxGeometry width="50" height="50" relative="1" as="geometry">
            <mxPoint x="330" y="770" as="sourcePoint" />
            <mxPoint x="440" y="540" as="targetPoint" />
          </mxGeometry>
        </mxCell>
        <mxCell id="gsG_nLjZA2B4zsjH67Nx-15" value="" style="endArrow=none;html=1;rounded=0;exitX=0.953;exitY=0.738;exitDx=0;exitDy=0;exitPerimeter=0;" edge="1" parent="1" source="gsG_nLjZA2B4zsjH67Nx-10" target="gsG_nLjZA2B4zsjH67Nx-12">
          <mxGeometry width="50" height="50" relative="1" as="geometry">
            <mxPoint x="540" y="585" as="sourcePoint" />
            <mxPoint x="590" y="535" as="targetPoint" />
          </mxGeometry>
        </mxCell>
        <mxCell id="gsG_nLjZA2B4zsjH67Nx-16" value="" style="endArrow=none;html=1;rounded=0;exitX=1;exitY=0;exitDx=0;exitDy=0;" edge="1" parent="1" source="gsG_nLjZA2B4zsjH67Nx-11" target="gsG_nLjZA2B4zsjH67Nx-10">
          <mxGeometry width="50" height="50" relative="1" as="geometry">
            <mxPoint x="390" y="590" as="sourcePoint" />
            <mxPoint x="440" y="540" as="targetPoint" />
          </mxGeometry>
        </mxCell>
      </root>
    </mxGraphModel>
  </diagram>
</mxfile>
